<?xml version="1.0" encoding="UTF-8" standalone="no"?>
<!DOCTYPE svg PUBLIC "-//W3C//DTD SVG 1.1//EN"
 "http://www.w3.org/Graphics/SVG/1.1/DTD/svg11.dtd">
<!-- Generated by graphviz version 7.1.0 (20230121.1956)
 -->
<!-- Title: nescart Pages: 1 -->
<svg width="2811pt" height="1118pt"
 viewBox="0.00 0.00 2811.32 1118.32" xmlns="http://www.w3.org/2000/svg" xmlns:xlink="http://www.w3.org/1999/xlink">
<g id="graph0" class="graph" transform="scale(1 1) rotate(0) translate(20.16 1098.16)">
<title>nescart</title>
<polygon fill="white" stroke="none" points="-20.16,20.16 -20.16,-1098.16 2791.16,-1098.16 2791.16,20.16 -20.16,20.16"/>
<text text-anchor="middle" x="1385.5" y="-1054.8" font-family="Arial Bold" font-size="24.00">nescart Rev A &#45; operating architecture</text>
<text text-anchor="middle" x="1385.5" y="-1028.8" font-family="Arial Bold" font-size="24.00">Functional signal flow, power domains, and reset ownership</text>
<g id="clust2" class="cluster">
<title>cluster_console_if</title>
<path fill="#f8fafc" stroke="#cbd5e1" stroke-width="1.3" d="M534,-692C534,-692 2751,-692 2751,-692 2757,-692 2763,-698 2763,-704 2763,-704 2763,-823 2763,-823 2763,-829 2757,-835 2751,-835 2751,-835 534,-835 534,-835 528,-835 522,-829 522,-823 522,-823 522,-704 522,-704 522,-698 528,-692 534,-692"/>
<text text-anchor="middle" x="1642.5" y="-819.8" font-family="Arial Bold" font-size="14.00">CONSOLE&#45;SIDE ISOLATION</text>
</g>
<g id="clust4" class="cluster">
<title>cluster_mcu_if</title>
<path fill="#f8fafc" stroke="#cbd5e1" stroke-width="1.3" d="M1667.5,-41C1667.5,-41 2223,-41 2223,-41 2229,-41 2235,-47 2235,-53 2235,-53 2235,-196 2235,-196 2235,-202 2229,-208 2223,-208 2223,-208 1667.5,-208 1667.5,-208 1661.5,-208 1655.5,-202 1655.5,-196 1655.5,-196 1655.5,-53 1655.5,-53 1655.5,-47 1661.5,-41 1667.5,-41"/>
<text text-anchor="middle" x="1945.25" y="-192.8" font-family="Arial Bold" font-size="14.00">MCU&#45;SIDE ISOLATION</text>
</g>
<g id="clust3" class="cluster">
<title>cluster_memory</title>
<path fill="#f8fafc" stroke="#cbd5e1" stroke-width="1.3" d="M2040,-272C2040,-272 2498,-272 2498,-272 2504,-272 2510,-278 2510,-284 2510,-284 2510,-427 2510,-427 2510,-433 2504,-439 2498,-439 2498,-439 2040,-439 2040,-439 2034,-439 2028,-433 2028,-427 2028,-427 2028,-284 2028,-284 2028,-278 2034,-272 2040,-272"/>
<text text-anchor="middle" x="2269" y="-423.8" font-family="Arial Bold" font-size="14.00">NROM IMAGE IN SRAM</text>
</g>
<g id="clust1" class="cluster">
<title>cluster_console</title>
<path fill="#f8fafc" stroke="#fdba74" stroke-width="1.3" d="M12,-680C12,-680 250,-680 250,-680 256,-680 262,-686 262,-692 262,-692 262,-743 262,-743 262,-749 256,-755 250,-755 250,-755 12,-755 12,-755 6,-755 0,-749 0,-743 0,-743 0,-692 0,-692 0,-686 6,-680 12,-680"/>
<text text-anchor="middle" x="131" y="-739.8" font-family="Arial Bold" font-size="14.00">NES CONSOLE / CARTRIDGE EDGE</text>
</g>
<g id="clust6" class="cluster">
<title>cluster_power</title>
<path fill="#f8fafc" stroke="#fca5a5" stroke-width="1.3" d="M76.5,-370C76.5,-370 1297,-370 1297,-370 1303,-370 1309,-376 1309,-382 1309,-382 1309,-439 1309,-439 1309,-445 1303,-451 1297,-451 1297,-451 76.5,-451 76.5,-451 70.5,-451 64.5,-445 64.5,-439 64.5,-439 64.5,-382 64.5,-382 64.5,-376 70.5,-370 76.5,-370"/>
<text text-anchor="middle" x="686.75" y="-435.8" font-family="Arial Bold" font-size="14.00">POWER</text>
</g>
<g id="clust5" class="cluster">
<title>cluster_controller</title>
<path fill="#f8fafc" stroke="#cbd5e1" stroke-width="1.3" d="M1332,-414C1332,-414 1814,-414 1814,-414 1820,-414 1826,-420 1826,-426 1826,-426 1826,-545 1826,-545 1826,-551 1820,-557 1814,-557 1814,-557 1332,-557 1332,-557 1326,-557 1320,-551 1320,-545 1320,-545 1320,-426 1320,-426 1320,-420 1326,-414 1332,-414"/>
<text text-anchor="middle" x="1573" y="-541.8" font-family="Arial Bold" font-size="14.00">CONTROL / STORAGE</text>
</g>
<!-- j1 -->
<g id="node1" class="node">
<title>j1</title>
<path fill="#fff7ed" stroke="#c2410c" stroke-width="2" d="M206,-724C206,-724 56,-724 56,-724 50,-724 44,-718 44,-712 44,-712 44,-700 44,-700 44,-694 50,-688 56,-688 56,-688 206,-688 206,-688 212,-688 218,-694 218,-700 218,-700 218,-712 218,-712 218,-718 212,-724 206,-724"/>
<text text-anchor="middle" x="131" y="-709.2" font-family="Arial" font-size="11.00">J1 &#160;72&#45;pin NES edge</text>
<text text-anchor="middle" x="131" y="-697.2" font-family="Arial" font-size="11.00">CPU bus | PPU bus | CIC | +5 V</text>
</g>
<!-- cpu_addr -->
<g id="node2" class="node">
<title>cpu_addr</title>
<path fill="white" stroke="#475569" stroke-width="1.2" d="M962,-791C962,-791 845,-791 845,-791 839,-791 833,-785 833,-779 833,-779 833,-755 833,-755 833,-749 839,-743 845,-743 845,-743 962,-743 962,-743 968,-743 974,-749 974,-755 974,-755 974,-779 974,-779 974,-785 968,-791 962,-791"/>
<text text-anchor="middle" x="903.5" y="-776.2" font-family="Arial" font-size="11.00">U1&#45;U2</text>
<text text-anchor="middle" x="903.5" y="-764.2" font-family="Arial" font-size="11.00">CPU address buffers</text>
<text text-anchor="middle" x="903.5" y="-752.2" font-family="Arial" font-size="11.00">A[0..14] &#45;&gt; PRG_A[0..14]</text>
</g>
<!-- j1&#45;&gt;cpu_addr -->
<g id="edge1" class="edge">
<title>j1&#45;&gt;cpu_addr</title>
<path fill="none" stroke="#2563eb" stroke-width="3" d="M218.67,-720.54C251.45,-726.04 281,-731 281,-731 281,-731 522,-764 522,-764 522,-764 698,-766 698,-766 698,-766 763.76,-766.32 820.7,-766.6"/>
<polygon fill="#2563eb" stroke="#2563eb" stroke-width="3" points="820.64,-769.22 828.15,-766.64 820.67,-763.97 820.64,-769.22"/>
<text text-anchor="middle" x="433" y="-763.8" font-family="Arial" font-size="9.00">CPU_A[0..14]</text>
</g>
<!-- ppu_addr -->
<g id="node3" class="node">
<title>ppu_addr</title>
<path fill="white" stroke="#475569" stroke-width="1.2" d="M659,-748C659,-748 542,-748 542,-748 536,-748 530,-742 530,-736 530,-736 530,-712 530,-712 530,-706 536,-700 542,-700 542,-700 659,-700 659,-700 665,-700 671,-706 671,-712 671,-712 671,-736 671,-736 671,-742 665,-748 659,-748"/>
<text text-anchor="middle" x="600.5" y="-733.2" font-family="Arial" font-size="11.00">U3&#45;U4</text>
<text text-anchor="middle" x="600.5" y="-721.2" font-family="Arial" font-size="11.00">PPU address buffers</text>
<text text-anchor="middle" x="600.5" y="-709.2" font-family="Arial" font-size="11.00">A[0..12] &#45;&gt; CHR_A[0..12]</text>
</g>
<!-- j1&#45;&gt;ppu_addr -->
<g id="edge5" class="edge">
<title>j1&#45;&gt;ppu_addr</title>
<path fill="none" stroke="#7c3aed" stroke-width="3" d="M218.84,-709.34C304.28,-712.63 433.77,-717.62 517.5,-720.84"/>
<polygon fill="#7c3aed" stroke="#7c3aed" stroke-width="3" points="517.38,-723.47 524.98,-721.13 517.58,-718.22 517.38,-723.47"/>
<text text-anchor="middle" x="308.5" y="-715.8" font-family="Arial" font-size="9.00">PPU_A[0..12]</text>
</g>
<!-- glue -->
<g id="node6" class="node">
<title>glue</title>
<path fill="#ecfdf5" stroke="#15803d" stroke-width="1.2" d="M1997,-782C1997,-782 1857,-782 1857,-782 1851,-782 1845,-776 1845,-770 1845,-770 1845,-746 1845,-746 1845,-740 1851,-734 1857,-734 1857,-734 1997,-734 1997,-734 2003,-734 2009,-740 2009,-746 2009,-746 2009,-770 2009,-770 2009,-776 2003,-782 1997,-782"/>
<text text-anchor="middle" x="1927" y="-767.2" font-family="Arial" font-size="11.00">U18&#45;U22</text>
<text text-anchor="middle" x="1927" y="-755.2" font-family="Arial" font-size="11.00">RUN inversion + read decode</text>
<text text-anchor="middle" x="1927" y="-743.2" font-family="Arial" font-size="11.00">PRG_EN_n / CHR_EN_n</text>
</g>
<!-- j1&#45;&gt;glue -->
<g id="edge9" class="edge">
<title>j1&#45;&gt;glue</title>
<path fill="none" stroke="#15803d" stroke-width="1.8" d="M170.61,-724.92C251.63,-764.62 432,-853 432,-853 432,-853 432,-853 1583,-853 1583,-853 1826,-832 1826,-832 1826,-832 1857.36,-808.8 1884.95,-788.38"/>
<polygon fill="#15803d" stroke="#15803d" stroke-width="1.8" points="1886.32,-790.63 1890.79,-784.06 1883.2,-786.41 1886.32,-790.63"/>
<text text-anchor="middle" x="903.5" y="-855.8" font-family="Arial" font-size="9.00">/ROMSEL, R/W, /RD, /A13</text>
</g>
<!-- por -->
<g id="node17" class="node">
<title>por</title>
<path fill="white" stroke="#475569" stroke-width="1.2" d="M491,-420C491,-420 375,-420 375,-420 369,-420 363,-414 363,-408 363,-408 363,-396 363,-396 363,-390 369,-384 375,-384 375,-384 491,-384 491,-384 497,-384 503,-390 503,-396 503,-396 503,-408 503,-408 503,-414 497,-420 491,-420"/>
<text text-anchor="middle" x="433" y="-405.2" font-family="Arial" font-size="11.00">D1/D2 SS34</text>
<text text-anchor="middle" x="433" y="-393.2" font-family="Arial" font-size="11.00">USB / NES Schottky OR</text>
</g>
<!-- j1&#45;&gt;por -->
<g id="edge25" class="edge">
<title>j1&#45;&gt;por</title>
<path fill="none" stroke="#dc2626" stroke-width="1.8" d="M143.2,-687.28C177.85,-629.38 281,-457 281,-457 281,-457 329.78,-439.23 371.88,-423.9"/>
<polygon fill="#dc2626" stroke="#dc2626" stroke-width="1.8" points="372.59,-426.43 378.74,-421.4 370.79,-421.5 372.59,-426.43"/>
<text text-anchor="middle" x="308.5" y="-459.8" font-family="Arial" font-size="9.00">NES_5V</text>
</g>
<!-- nes5 -->
<g id="node20" class="node">
<title>nes5</title>
<path fill="#fff7ed" stroke="#475569" stroke-width="1.2" d="M1289,-420C1289,-420 1198,-420 1198,-420 1192,-420 1186,-414 1186,-408 1186,-408 1186,-396 1186,-396 1186,-390 1192,-384 1198,-384 1198,-384 1289,-384 1289,-384 1295,-384 1301,-390 1301,-396 1301,-396 1301,-408 1301,-408 1301,-414 1295,-420 1289,-420"/>
<text text-anchor="middle" x="1243.5" y="-405.2" font-family="Arial" font-size="11.00">NES_5V</text>
<text text-anchor="middle" x="1243.5" y="-393.2" font-family="Arial" font-size="11.00">ATtiny CIC + sense</text>
</g>
<!-- j1&#45;&gt;nes5 -->
<g id="edge33" class="edge">
<title>j1&#45;&gt;nes5</title>
<path fill="none" stroke="#dc2626" stroke-width="1.8" d="M147.95,-687.16C186.38,-641.76 281,-530 281,-530 281,-530 432,-489 432,-489 432,-489 432,-489 904.5,-489 904.5,-489 1159,-430 1159,-430 1159,-430 1167.09,-427.29 1178.24,-423.55"/>
<polygon fill="#dc2626" stroke="#dc2626" stroke-width="1.8" points="1178.88,-426.1 1185.15,-421.23 1177.21,-421.13 1178.88,-426.1"/>
<text text-anchor="middle" x="600.5" y="-491.8" font-family="Arial" font-size="9.00">NES_5V</text>
</g>
<!-- prg -->
<g id="node7" class="node">
<title>prg</title>
<path fill="#eff6ff" stroke="#475569" stroke-width="1.2" d="M2490,-328C2490,-328 2397,-328 2397,-328 2391,-328 2385,-322 2385,-316 2385,-316 2385,-292 2385,-292 2385,-286 2391,-280 2397,-280 2397,-280 2490,-280 2490,-280 2496,-280 2502,-286 2502,-292 2502,-292 2502,-316 2502,-316 2502,-322 2496,-328 2490,-328"/>
<text text-anchor="middle" x="2443.5" y="-313.2" font-family="Arial" font-size="11.00">U13 &#160;CY62128EV30</text>
<text text-anchor="middle" x="2443.5" y="-301.2" font-family="Arial" font-size="11.00">PRG SRAM | 45 ns</text>
<text text-anchor="middle" x="2443.5" y="-289.2" font-family="Arial" font-size="11.00">32 KiB used</text>
</g>
<!-- cpu_addr&#45;&gt;prg -->
<g id="edge2" class="edge">
<title>cpu_addr&#45;&gt;prg</title>
<path fill="none" stroke="#2563eb" stroke-width="3" d="M974.37,-756.52C1133.85,-732.59 1511,-676 1511,-676 1511,-676 2243,-424 2243,-424 2243,-424 2332.73,-370.02 2391.84,-334.47"/>
<polygon fill="#2563eb" stroke="#2563eb" stroke-width="3" points="2393.16,-336.74 2398.24,-330.62 2390.46,-332.24 2393.16,-336.74"/>
<text text-anchor="middle" x="1582" y="-668.8" font-family="Arial" font-size="9.00">PRG_A[0..14]</text>
</g>
<!-- chr -->
<g id="node8" class="node">
<title>chr</title>
<path fill="#f5f3ff" stroke="#475569" stroke-width="1.2" d="M2490,-408C2490,-408 2397,-408 2397,-408 2391,-408 2385,-402 2385,-396 2385,-396 2385,-372 2385,-372 2385,-366 2391,-360 2397,-360 2397,-360 2490,-360 2490,-360 2496,-360 2502,-366 2502,-372 2502,-372 2502,-396 2502,-396 2502,-402 2496,-408 2490,-408"/>
<text text-anchor="middle" x="2443.5" y="-393.2" font-family="Arial" font-size="11.00">U14 &#160;CY62128EV30</text>
<text text-anchor="middle" x="2443.5" y="-381.2" font-family="Arial" font-size="11.00">CHR SRAM | 45 ns</text>
<text text-anchor="middle" x="2443.5" y="-369.2" font-family="Arial" font-size="11.00">8 KiB used</text>
</g>
<!-- ppu_addr&#45;&gt;chr -->
<g id="edge6" class="edge">
<title>ppu_addr&#45;&gt;chr</title>
<path fill="none" stroke="#7c3aed" stroke-width="3" d="M671.13,-708.11C778.94,-683.51 974,-639 974,-639 974,-639 1309,-459 1309,-459 1309,-459 1320,-396 1320,-396 1320,-396 1653,-320 1653,-320 1653,-320 1826,-320 1826,-320 1826,-320 2243,-344 2243,-344 2243,-344 2315.32,-358.5 2372.87,-370.04"/>
<polygon fill="#7c3aed" stroke="#7c3aed" stroke-width="3" points="2372.21,-372.58 2380.08,-371.48 2373.24,-367.44 2372.21,-372.58"/>
<text text-anchor="middle" x="1419.5" y="-398.8" font-family="Arial" font-size="9.00">CHR_A[0..12]</text>
</g>
<!-- cpu_data -->
<g id="node4" class="node">
<title>cpu_data</title>
<path fill="white" stroke="#475569" stroke-width="1.2" d="M2743,-736C2743,-736 2620,-736 2620,-736 2614,-736 2608,-730 2608,-724 2608,-724 2608,-712 2608,-712 2608,-706 2614,-700 2620,-700 2620,-700 2743,-700 2743,-700 2749,-700 2755,-706 2755,-712 2755,-712 2755,-724 2755,-724 2755,-730 2749,-736 2743,-736"/>
<text text-anchor="middle" x="2681.5" y="-721.2" font-family="Arial" font-size="11.00">U5</text>
<text text-anchor="middle" x="2681.5" y="-709.2" font-family="Arial" font-size="11.00">PRG data &#45;&gt; CPU_D[0..7]</text>
</g>
<!-- cpu_data&#45;&gt;j1 -->
<g id="edge4" class="edge">
<title>cpu_data&#45;&gt;j1</title>
<path fill="none" stroke="#2563eb" stroke-width="3" d="M2641.28,-736.39C2624.2,-744.4 2608,-752 2608,-752 2608,-752 2444.5,-934 2444.5,-934 432,-934 432,-934 432,-934 432,-934 245.02,-791.89 166.29,-732.06"/>
<polygon fill="#2563eb" stroke="#2563eb" stroke-width="3" points="167.98,-730.05 160.42,-727.6 164.8,-734.23 167.98,-730.05"/>
<text text-anchor="middle" x="1419.5" y="-936.8" font-family="Arial" font-size="9.00">CPU_D[0..7]</text>
</g>
<!-- ppu_data -->
<g id="node5" class="node">
<title>ppu_data</title>
<path fill="white" stroke="#475569" stroke-width="1.2" d="M2742.5,-804C2742.5,-804 2620.5,-804 2620.5,-804 2614.5,-804 2608.5,-798 2608.5,-792 2608.5,-792 2608.5,-780 2608.5,-780 2608.5,-774 2614.5,-768 2620.5,-768 2620.5,-768 2742.5,-768 2742.5,-768 2748.5,-768 2754.5,-774 2754.5,-780 2754.5,-780 2754.5,-792 2754.5,-792 2754.5,-798 2748.5,-804 2742.5,-804"/>
<text text-anchor="middle" x="2681.5" y="-789.2" font-family="Arial" font-size="11.00">U6</text>
<text text-anchor="middle" x="2681.5" y="-777.2" font-family="Arial" font-size="11.00">CHR data &#45;&gt; PPU_D[0..7]</text>
</g>
<!-- ppu_data&#45;&gt;j1 -->
<g id="edge8" class="edge">
<title>ppu_data&#45;&gt;j1</title>
<path fill="none" stroke="#7c3aed" stroke-width="3" d="M2662.58,-804.19C2618.8,-848.6 2510,-959 2510,-959 2510,-959 2444.5,-1008 2444.5,-1008 432,-1008 432,-1008 432,-1008 432,-1008 281,-865 281,-865 281,-865 200.27,-778.85 157.66,-733.38"/>
<polygon fill="#7c3aed" stroke="#7c3aed" stroke-width="3" points="159.83,-731.85 152.78,-728.18 156,-735.44 159.83,-731.85"/>
<text text-anchor="middle" x="1419.5" y="-1010.8" font-family="Arial" font-size="9.00">PPU_D[0..7]</text>
</g>
<!-- glue&#45;&gt;cpu_data -->
<g id="edge10" class="edge">
<title>glue&#45;&gt;cpu_data</title>
<path fill="none" stroke="#15803d" stroke-width="1.8" d="M2009.25,-753.68C2153.34,-746.02 2452.12,-730.14 2597.48,-722.41"/>
<polygon fill="#15803d" stroke="#15803d" stroke-width="1.8" points="2597.6,-725.04 2604.95,-722.02 2597.32,-719.79 2597.6,-725.04"/>
<text text-anchor="middle" x="2314" y="-741.8" font-family="Arial" font-size="9.00">PRG_EN_n</text>
</g>
<!-- glue&#45;&gt;ppu_data -->
<g id="edge11" class="edge">
<title>glue&#45;&gt;ppu_data</title>
<path fill="none" stroke="#15803d" stroke-width="1.8" d="M2009.25,-761.02C2153.52,-766.39 2452.89,-777.53 2598.04,-782.93"/>
<polygon fill="#15803d" stroke="#15803d" stroke-width="1.8" points="2597.9,-785.55 2605.5,-783.21 2598.1,-780.31 2597.9,-785.55"/>
<text text-anchor="middle" x="2314" y="-775.8" font-family="Arial" font-size="9.00">CHR_EN_n</text>
</g>
<!-- prg&#45;&gt;cpu_data -->
<g id="edge3" class="edge">
<title>prg&#45;&gt;cpu_data</title>
<path fill="none" stroke="#2563eb" stroke-width="3" d="M2484.49,-328.42C2498.13,-336.75 2510,-344 2510,-344 2510,-344 2627.17,-601.02 2667.25,-688.93"/>
<polygon fill="#2563eb" stroke="#2563eb" stroke-width="3" points="2664.78,-689.84 2670.28,-695.58 2669.55,-687.66 2664.78,-689.84"/>
<text text-anchor="middle" x="2555" y="-499.8" font-family="Arial" font-size="9.00">PRG_D[0..7]</text>
</g>
<!-- chr&#45;&gt;ppu_data -->
<g id="edge7" class="edge">
<title>chr&#45;&gt;ppu_data</title>
<path fill="none" stroke="#7c3aed" stroke-width="3" d="M2455.35,-408.43C2491.87,-490.62 2608,-752 2608,-752 2608,-752 2618.08,-756.73 2630.73,-762.66"/>
<polygon fill="#7c3aed" stroke="#7c3aed" stroke-width="3" points="2629.26,-764.87 2637.17,-765.68 2631.49,-760.12 2629.26,-764.87"/>
<text text-anchor="middle" x="2555" y="-692.8" font-family="Arial" font-size="9.00">CHR_D[0..7]</text>
</g>
<!-- bank -->
<g id="node9" class="node">
<title>bank</title>
<polygon fill="#fff7ed" stroke="#b45309" stroke-width="1.2" points="2237,-408 2036,-408 2036,-360 2243,-360 2243,-402 2237,-408"/>
<polyline fill="none" stroke="#b45309" stroke-width="1.2" points="2237,-408 2237,-402"/>
<polyline fill="none" stroke="#b45309" stroke-width="1.2" points="2243,-402 2237,-402"/>
<text text-anchor="middle" x="2139.5" y="-393.2" font-family="Arial" font-size="11.00">STATIC BANK SELECT</text>
<text text-anchor="middle" x="2139.5" y="-381.2" font-family="Arial" font-size="11.00">CE1=0 | CE2=1 | A15=1 | A16=0</text>
<text text-anchor="middle" x="2139.5" y="-369.2" font-family="Arial" font-size="11.00">pin 1 NC at die; footprint pad grounded</text>
</g>
<!-- bank&#45;&gt;prg -->
<g id="edge31" class="edge">
<title>bank&#45;&gt;prg</title>
<path fill="none" stroke="#b45309" stroke-width="1.8" stroke-dasharray="5,2" d="M2232.75,-359.56C2282.19,-346.47 2341.58,-330.73 2384.52,-319.36"/>
</g>
<!-- bank&#45;&gt;chr -->
<g id="edge32" class="edge">
<title>bank&#45;&gt;chr</title>
<path fill="none" stroke="#b45309" stroke-width="1.8" stroke-dasharray="5,2" d="M2243.16,-384C2290.36,-384 2344.6,-384 2384.57,-384"/>
</g>
<!-- mcu_addr -->
<g id="node10" class="node">
<title>mcu_addr</title>
<path fill="white" stroke="#475569" stroke-width="1.2" d="M2207.5,-97C2207.5,-97 2071.5,-97 2071.5,-97 2065.5,-97 2059.5,-91 2059.5,-85 2059.5,-85 2059.5,-61 2059.5,-61 2059.5,-55 2065.5,-49 2071.5,-49 2071.5,-49 2207.5,-49 2207.5,-49 2213.5,-49 2219.5,-55 2219.5,-61 2219.5,-61 2219.5,-85 2219.5,-85 2219.5,-91 2213.5,-97 2207.5,-97"/>
<text text-anchor="middle" x="2139.5" y="-82.2" font-family="Arial" font-size="11.00">U7&#45;U10</text>
<text text-anchor="middle" x="2139.5" y="-70.2" font-family="Arial" font-size="11.00">MCU address buffers</text>
<text text-anchor="middle" x="2139.5" y="-58.2" font-family="Arial" font-size="11.00">MCU_A &#45;&gt; PRG_A + CHR_A</text>
</g>
<!-- mcu_addr&#45;&gt;prg -->
<g id="edge14" class="edge">
<title>mcu_addr&#45;&gt;prg</title>
<path fill="none" stroke="#0891b2" stroke-width="1.8" d="M2219.95,-83.59C2282.08,-91.88 2358,-102 2358,-102 2358,-102 2404.32,-212.73 2428.37,-270.22"/>
<polygon fill="#0891b2" stroke="#0891b2" stroke-width="1.8" points="2425.94,-271.21 2431.26,-277.12 2430.78,-269.19 2425.94,-271.21"/>
<text text-anchor="middle" x="2314" y="-104.8" font-family="Arial" font-size="9.00">LOAD address</text>
</g>
<!-- mcu_addr&#45;&gt;chr -->
<g id="edge15" class="edge">
<title>mcu_addr&#45;&gt;chr</title>
<path fill="none" stroke="#0891b2" stroke-width="1.8" d="M2203.08,-97.42C2224.42,-105.75 2243,-113 2243,-113 2243,-113 2270,-131 2270,-131 2270,-131 2358,-172 2358,-172 2358,-172 2385,-344 2385,-344 2385,-344 2390.99,-348.16 2399.1,-353.81"/>
<polygon fill="#0891b2" stroke="#0891b2" stroke-width="1.8" points="2397.5,-355.9 2405.16,-358.02 2400.5,-351.59 2397.5,-355.9"/>
<text text-anchor="middle" x="2314" y="-174.8" font-family="Arial" font-size="9.00">LOAD address</text>
</g>
<!-- mcu_data -->
<g id="node11" class="node">
<title>mcu_data</title>
<path fill="white" stroke="#475569" stroke-width="1.2" d="M2215,-177C2215,-177 2064,-177 2064,-177 2058,-177 2052,-171 2052,-165 2052,-165 2052,-141 2052,-141 2052,-135 2058,-129 2064,-129 2064,-129 2215,-129 2215,-129 2221,-129 2227,-135 2227,-141 2227,-141 2227,-165 2227,-165 2227,-171 2221,-177 2215,-177"/>
<text text-anchor="middle" x="2139.5" y="-162.2" font-family="Arial" font-size="11.00">U11&#45;U12</text>
<text text-anchor="middle" x="2139.5" y="-150.2" font-family="Arial" font-size="11.00">Bidirectional load/readback data</text>
<text text-anchor="middle" x="2139.5" y="-138.2" font-family="Arial" font-size="11.00">MCU_D &lt;&#45;&gt; PRG_D / CHR_D</text>
</g>
<!-- mcu_data&#45;&gt;prg -->
<g id="edge17" class="edge">
<title>mcu_data&#45;&gt;prg</title>
<path fill="none" stroke="#0891b2" stroke-width="1.8" d="M2237.15,-128.37C2255.97,-123.58 2270,-120 2270,-120 2270,-120 2358,-120 2358,-120 2358,-120 2402.76,-217.46 2427.12,-270.52"/>
<polygon fill="#0891b2" stroke="#0891b2" stroke-width="1.8" points="2236.5,-125.83 2229.88,-130.22 2237.79,-130.92 2236.5,-125.83"/>
<polygon fill="#0891b2" stroke="#0891b2" stroke-width="1.8" points="2424.63,-271.37 2430.14,-277.09 2429.4,-269.18 2424.63,-271.37"/>
<text text-anchor="middle" x="2314" y="-122.8" font-family="Arial" font-size="9.00">write / CRC readback</text>
</g>
<!-- mcu_data&#45;&gt;chr -->
<g id="edge18" class="edge">
<title>mcu_data&#45;&gt;chr</title>
<path fill="none" stroke="#0891b2" stroke-width="1.8" d="M2237.05,-180.08C2295.17,-196.38 2358,-214 2358,-214 2358,-214 2385,-344 2385,-344 2385,-344 2390.99,-348.16 2399.1,-353.81"/>
<polygon fill="#0891b2" stroke="#0891b2" stroke-width="1.8" points="2237.95,-177.61 2230.02,-178.11 2236.54,-182.66 2237.95,-177.61"/>
<polygon fill="#0891b2" stroke="#0891b2" stroke-width="1.8" points="2397.5,-355.9 2405.16,-358.02 2400.5,-351.59 2397.5,-355.9"/>
<text text-anchor="middle" x="2314" y="-216.8" font-family="Arial" font-size="9.00">write / CRC readback</text>
</g>
<!-- shift -->
<g id="node12" class="node">
<title>shift</title>
<path fill="#ecfeff" stroke="#0891b2" stroke-width="1.2" d="M1795.5,-157C1795.5,-157 1675.5,-157 1675.5,-157 1669.5,-157 1663.5,-151 1663.5,-145 1663.5,-145 1663.5,-133 1663.5,-133 1663.5,-127 1669.5,-121 1675.5,-121 1675.5,-121 1795.5,-121 1795.5,-121 1801.5,-121 1807.5,-127 1807.5,-133 1807.5,-133 1807.5,-145 1807.5,-145 1807.5,-151 1801.5,-157 1795.5,-157"/>
<text text-anchor="middle" x="1735.5" y="-142.2" font-family="Arial" font-size="11.00">U15&#45;U16 &#160;74HC595</text>
<text text-anchor="middle" x="1735.5" y="-130.2" font-family="Arial" font-size="11.00">15&#45;bit address generation</text>
</g>
<!-- shift&#45;&gt;mcu_addr -->
<g id="edge13" class="edge">
<title>shift&#45;&gt;mcu_addr</title>
<path fill="none" stroke="#0891b2" stroke-width="3" d="M1807.91,-127.28C1874.7,-116.31 1974.76,-99.88 2047.3,-87.97"/>
<polygon fill="#0891b2" stroke="#0891b2" stroke-width="3" points="2047.7,-90.57 2054.67,-86.76 2046.84,-85.39 2047.7,-90.57"/>
<text text-anchor="middle" x="1927" y="-121.8" font-family="Arial" font-size="9.00">MCU_A[0..14]</text>
</g>
<!-- esp -->
<g id="node13" class="node">
<title>esp</title>
<path fill="#ecfeff" stroke="#0891b2" stroke-width="2" d="M1499,-470C1499,-470 1340,-470 1340,-470 1334,-470 1328,-464 1328,-458 1328,-458 1328,-434 1328,-434 1328,-428 1334,-422 1340,-422 1340,-422 1499,-422 1499,-422 1505,-422 1511,-428 1511,-434 1511,-434 1511,-458 1511,-458 1511,-464 1505,-470 1499,-470"/>
<text text-anchor="middle" x="1419.5" y="-455.2" font-family="Arial" font-size="11.00">U23 &#160;ESP32&#45;S3&#45;WROOM&#45;1&#45;N8</text>
<text text-anchor="middle" x="1419.5" y="-443.2" font-family="Arial" font-size="11.00">WiFi upload | flash source of truth</text>
<text text-anchor="middle" x="1419.5" y="-431.2" font-family="Arial" font-size="11.00">load + CRC verify | mode control</text>
</g>
<!-- esp&#45;&gt;glue -->
<g id="edge19" class="edge">
<title>esp&#45;&gt;glue</title>
<path fill="none" stroke="#15803d" stroke-width="1.8" d="M1460.59,-470.74C1552.62,-527.55 1778.73,-667.1 1877.97,-728.36"/>
<polygon fill="#15803d" stroke="#15803d" stroke-width="1.8" points="1876.53,-730.55 1884.29,-732.25 1879.28,-726.08 1876.53,-730.55"/>
<text text-anchor="middle" x="1582" y="-570.8" font-family="Arial" font-size="9.00">LOAD_MODE</text>
</g>
<!-- esp&#45;&gt;mcu_data -->
<g id="edge16" class="edge">
<title>esp&#45;&gt;mcu_data</title>
<path fill="none" stroke="#0891b2" stroke-width="3" d="M1481.72,-421.02C1614.2,-366.95 1926.89,-239.35 2067.65,-181.91"/>
<polygon fill="#0891b2" stroke="#0891b2" stroke-width="3" points="2068.55,-184.38 2074.5,-179.12 2066.56,-179.52 2068.55,-184.38"/>
<text text-anchor="middle" x="1735.5" y="-349.8" font-family="Arial" font-size="9.00">MCU_D[0..7] + DIR + enables</text>
</g>
<!-- esp&#45;&gt;shift -->
<g id="edge12" class="edge">
<title>esp&#45;&gt;shift</title>
<path fill="none" stroke="#0891b2" stroke-width="1.8" d="M1451.39,-421.08C1477.61,-399.93 1511,-373 1511,-373 1511,-373 1651.96,-225.42 1709.99,-164.66"/>
<polygon fill="#0891b2" stroke="#0891b2" stroke-width="1.8" points="1711.8,-166.57 1715.08,-159.33 1708,-162.94 1711.8,-166.57"/>
<text text-anchor="middle" x="1582" y="-346.8" font-family="Arial" font-size="9.00">SER / SRCLK / RCLK</text>
</g>
<!-- mirror -->
<g id="node14" class="node">
<title>mirror</title>
<path fill="white" stroke="#475569" stroke-width="1.2" d="M1806,-458C1806,-458 1665,-458 1665,-458 1659,-458 1653,-452 1653,-446 1653,-446 1653,-434 1653,-434 1653,-428 1659,-422 1665,-422 1665,-422 1806,-422 1806,-422 1812,-422 1818,-428 1818,-434 1818,-434 1818,-446 1818,-446 1818,-452 1812,-458 1806,-458"/>
<text text-anchor="middle" x="1735.5" y="-443.2" font-family="Arial" font-size="11.00">U17 &#160;SN74LVC157A</text>
<text text-anchor="middle" x="1735.5" y="-431.2" font-family="Arial" font-size="11.00">PPU A10/A11 mirroring select</text>
</g>
<!-- esp&#45;&gt;mirror -->
<g id="edge20" class="edge">
<title>esp&#45;&gt;mirror</title>
<path fill="none" stroke="#15803d" stroke-width="1.8" d="M1511.74,-444.26C1552.89,-443.47 1601.4,-442.54 1642.63,-441.76"/>
<polygon fill="#15803d" stroke="#15803d" stroke-width="1.8" points="1642.5,-444.38 1649.94,-441.62 1642.4,-439.13 1642.5,-444.38"/>
<text text-anchor="middle" x="1582" y="-445.8" font-family="Arial" font-size="9.00">MIRROR_SEL</text>
</g>
<!-- cic -->
<g id="node15" class="node">
<title>cic</title>
<path fill="#fff7ed" stroke="#c2410c" stroke-width="1.2" d="M1785,-526C1785,-526 1686,-526 1686,-526 1680,-526 1674,-520 1674,-514 1674,-514 1674,-502 1674,-502 1674,-496 1680,-490 1686,-490 1686,-490 1785,-490 1785,-490 1791,-490 1797,-496 1797,-502 1797,-502 1797,-514 1797,-514 1797,-520 1791,-526 1785,-526"/>
<text text-anchor="middle" x="1735.5" y="-511.2" font-family="Arial" font-size="11.00">Q1 + U24 &#160;ATtiny13A</text>
<text text-anchor="middle" x="1735.5" y="-499.2" font-family="Arial" font-size="11.00">CIC key reset gate</text>
</g>
<!-- esp&#45;&gt;cic -->
<g id="edge22" class="edge">
<title>esp&#45;&gt;cic</title>
<path fill="none" stroke="#c2410c" stroke-width="1.8" d="M1511.74,-464.02C1560.23,-473.59 1618.92,-485.18 1663.88,-494.06"/>
<polygon fill="#c2410c" stroke="#c2410c" stroke-width="1.8" points="1663.3,-496.62 1671.17,-495.5 1664.32,-491.47 1663.3,-496.62"/>
<text text-anchor="middle" x="1582" y="-488.8" font-family="Arial" font-size="9.00">CIC_GATE</text>
</g>
<!-- mirror&#45;&gt;j1 -->
<g id="edge21" class="edge">
<title>mirror&#45;&gt;j1</title>
<path fill="none" stroke="#7c3aed" stroke-width="1.8" d="M1690.41,-458.39C1671.21,-466.4 1653,-474 1653,-474 1653,-474 1626,-504 1626,-504 1626,-504 904.5,-555 904.5,-555 432,-555 432,-555 432,-555 432,-555 263.16,-639.98 178.81,-682.44"/>
<polygon fill="#7c3aed" stroke="#7c3aed" stroke-width="1.8" points="177.64,-680.09 172.12,-685.8 180,-684.78 177.64,-680.09"/>
<text text-anchor="middle" x="903.5" y="-557.8" font-family="Arial" font-size="9.00">CIRAM_A10</text>
</g>
<!-- cic&#45;&gt;j1 -->
<g id="edge23" class="edge">
<title>cic&#45;&gt;j1</title>
<path fill="none" stroke="#c2410c" stroke-width="2.5" d="M1695.57,-532.36C1674.61,-545.48 1653,-559 1653,-559 1653,-559 1626,-610 1626,-610 1626,-610 904.5,-621 904.5,-621 432,-621 432,-621 432,-621 432,-621 298.45,-658.84 209.56,-684.02"/>
<polygon fill="#c2410c" stroke="#c2410c" stroke-width="2.5" points="1696.9,-534.62 1701.87,-528.42 1694.12,-530.17 1696.9,-534.62"/>
<polygon fill="#c2410c" stroke="#c2410c" stroke-width="2.5" points="209.09,-681.43 202.59,-686 210.52,-686.48 209.09,-681.43"/>
<text text-anchor="middle" x="903.5" y="-623.8" font-family="Arial" font-size="9.00">CLK / RESET / DATA</text>
</g>
<!-- usb -->
<g id="node16" class="node">
<title>usb</title>
<path fill="white" stroke="#475569" stroke-width="1.2" d="M177.5,-420C177.5,-420 84.5,-420 84.5,-420 78.5,-420 72.5,-414 72.5,-408 72.5,-408 72.5,-396 72.5,-396 72.5,-390 78.5,-384 84.5,-384 84.5,-384 177.5,-384 177.5,-384 183.5,-384 189.5,-390 189.5,-396 189.5,-396 189.5,-408 189.5,-408 189.5,-414 183.5,-420 177.5,-420"/>
<text text-anchor="middle" x="131" y="-405.2" font-family="Arial" font-size="11.00">J2 USB&#45;C</text>
<text text-anchor="middle" x="131" y="-393.2" font-family="Arial" font-size="11.00">VBUS + native USB</text>
</g>
<!-- usb&#45;&gt;por -->
<g id="edge24" class="edge">
<title>usb&#45;&gt;por</title>
<path fill="none" stroke="#dc2626" stroke-width="1.8" d="M189.84,-402C236.13,-402 301.54,-402 352.72,-402"/>
<polygon fill="#dc2626" stroke="#dc2626" stroke-width="1.8" points="352.53,-404.63 360.03,-402 352.53,-399.38 352.53,-404.63"/>
<text text-anchor="middle" x="308.5" y="-404.8" font-family="Arial" font-size="9.00">VBUS</text>
</g>
<!-- reg -->
<g id="node18" class="node">
<title>reg</title>
<path fill="white" stroke="#475569" stroke-width="1.2" d="M794,-420C794,-420 710,-420 710,-420 704,-420 698,-414 698,-408 698,-408 698,-396 698,-396 698,-390 704,-384 710,-384 710,-384 794,-384 794,-384 800,-384 806,-390 806,-396 806,-396 806,-408 806,-408 806,-414 800,-420 794,-420"/>
<text text-anchor="middle" x="752" y="-405.2" font-family="Arial" font-size="11.00">U25 AMS1117&#45;3.3</text>
<text text-anchor="middle" x="752" y="-393.2" font-family="Arial" font-size="11.00">+5 V &#45;&gt; +3V3</text>
</g>
<!-- por&#45;&gt;reg -->
<g id="edge26" class="edge">
<title>por&#45;&gt;reg</title>
<path fill="none" stroke="#dc2626" stroke-width="2.5" d="M503.18,-402C557.77,-402 633.36,-402 686.66,-402"/>
<polygon fill="#dc2626" stroke="#dc2626" stroke-width="2.5" points="686.4,-404.63 693.9,-402 686.4,-399.38 686.4,-404.63"/>
<text text-anchor="middle" x="600.5" y="-404.8" font-family="Arial" font-size="9.00">+5V</text>
</g>
<!-- rails -->
<g id="node19" class="node">
<title>rails</title>
<path fill="#fef2f2" stroke="#475569" stroke-width="1.2" d="M1147,-414C1147,-414 1013,-414 1013,-414 1007,-414 1001,-408 1001,-402 1001,-402 1001,-390 1001,-390 1001,-384 1007,-378 1013,-378 1013,-378 1147,-378 1147,-378 1153,-378 1159,-384 1159,-390 1159,-390 1159,-402 1159,-402 1159,-408 1153,-414 1147,-414"/>
<text text-anchor="middle" x="1080" y="-399.2" font-family="Arial" font-size="11.00">+3V3</text>
<text text-anchor="middle" x="1080" y="-387.2" font-family="Arial" font-size="11.00">ESP32 + SRAM + LVC logic</text>
</g>
<!-- reg&#45;&gt;rails -->
<g id="edge27" class="edge">
<title>reg&#45;&gt;rails</title>
<path fill="none" stroke="#dc2626" stroke-width="2.5" d="M806.47,-401.02C856.02,-400.1 930.71,-398.73 989.37,-397.65"/>
<polygon fill="#dc2626" stroke="#dc2626" stroke-width="2.5" points="989.27,-400.28 996.72,-397.51 989.17,-395.03 989.27,-400.28"/>
<text text-anchor="middle" x="903.5" y="-402.8" font-family="Arial" font-size="9.00">+3V3</text>
</g>
<!-- rails&#45;&gt;prg -->
<g id="edge29" class="edge">
<title>rails&#45;&gt;prg</title>
<path fill="none" stroke="#dc2626" stroke-width="1.8" d="M1096.6,-377.69C1162.98,-299.81 1418.5,0 1418.5,0 1418.5,0 1418.5,0 2140.5,0 2140.5,0 2243,-33 2243,-33 2243,-33 2358,-83 2358,-83 2358,-83 2405.87,-208.21 2429.55,-270.14"/>
<polygon fill="#dc2626" stroke="#dc2626" stroke-width="1.8" points="2427.03,-270.89 2432.16,-276.96 2431.93,-269.02 2427.03,-270.89"/>
</g>
<!-- rails&#45;&gt;chr -->
<g id="edge30" class="edge">
<title>rails&#45;&gt;chr</title>
<path fill="none" stroke="#dc2626" stroke-width="1.8" d="M1135.53,-377.52C1206.07,-353.61 1320,-315 1320,-315 1320,-315 1538,-254 1538,-254 1538,-254 1626,-254 1626,-254 1626,-254 2358,-286 2358,-286 2358,-286 2385,-344 2385,-344 2385,-344 2390.99,-348.16 2399.1,-353.81"/>
<polygon fill="#dc2626" stroke="#dc2626" stroke-width="1.8" points="2397.5,-355.9 2405.16,-358.02 2400.5,-351.59 2397.5,-355.9"/>
</g>
<!-- rails&#45;&gt;esp -->
<g id="edge28" class="edge">
<title>rails&#45;&gt;esp</title>
<path fill="none" stroke="#dc2626" stroke-width="1.8" d="M1159.23,-386.31C1174.56,-384.42 1186,-383 1186,-383 1186,-383 1309,-383 1309,-383 1309,-383 1338.25,-399.83 1366.52,-416.09"/>
<polygon fill="#dc2626" stroke="#dc2626" stroke-width="1.8" points="1365.05,-418.28 1372.86,-419.74 1367.67,-413.73 1365.05,-418.28"/>
</g>
<!-- nes5&#45;&gt;cic -->
<g id="edge34" class="edge">
<title>nes5&#45;&gt;cic</title>
<path fill="none" stroke="#dc2626" stroke-width="1.8" d="M1260.88,-420.23C1283.09,-444.93 1320,-486 1320,-486 1320,-486 1538,-504 1538,-504 1538,-504 1607.38,-505.41 1663.69,-506.56"/>
<polygon fill="#dc2626" stroke="#dc2626" stroke-width="1.8" points="1663.4,-509.18 1670.95,-506.71 1663.5,-503.93 1663.4,-509.18"/>
</g>
</g>
</svg>
